<?xml version="1.0" encoding="UTF-8" standalone="no"?>
<!-- Created with Inkscape (http://www.inkscape.org/) -->

<svg
   xmlns:dc="http://purl.org/dc/elements/1.1/"
   xmlns:cc="http://creativecommons.org/ns#"
   xmlns:rdf="http://www.w3.org/1999/02/22-rdf-syntax-ns#"
   xmlns:svg="http://www.w3.org/2000/svg"
   xmlns="http://www.w3.org/2000/svg"
   xmlns:sodipodi="http://sodipodi.sourceforge.net/DTD/sodipodi-0.dtd"
   xmlns:inkscape="http://www.inkscape.org/namespaces/inkscape"
   width="400"
   height="400"
   id="svg3029"
   sodipodi:version="0.32"
   inkscape:version="0.48.4 r9939"
   version="1.0"
   sodipodi:docname="scout-emblem-flat.svg"
   inkscape:output_extension="org.inkscape.output.svg.inkscape">
  <defs
     id="defs3031">
    <inkscape:perspective
       sodipodi:type="inkscape:persp3d"
       inkscape:vp_x="0 : 526.18109 : 1"
       inkscape:vp_y="0 : 1000 : 0"
       inkscape:vp_z="744.09448 : 526.18109 : 1"
       inkscape:persp3d-origin="372.04724 : 350.78739 : 1"
       id="perspective3037" />
    <inkscape:perspective
       id="perspective93"
       inkscape:persp3d-origin="200 : 133.33333 : 1"
       inkscape:vp_z="400 : 200 : 1"
       inkscape:vp_y="0 : 1000 : 0"
       inkscape:vp_x="0 : 200 : 1"
       sodipodi:type="inkscape:persp3d" />
  </defs>
  <sodipodi:namedview
     id="base"
     pagecolor="#ffffff"
     bordercolor="#666666"
     borderopacity="1.0"
     gridtolerance="10000"
     guidetolerance="10"
     objecttolerance="10"
     inkscape:pageopacity="0.0"
     inkscape:pageshadow="2"
     inkscape:zoom="0.7"
     inkscape:cx="-31.001519"
     inkscape:cy="156.34508"
     inkscape:document-units="px"
     inkscape:current-layer="layer1"
     showgrid="false"
     inkscape:window-width="1549"
     inkscape:window-height="876"
     inkscape:window-x="51"
     inkscape:window-y="24"
     inkscape:window-maximized="1"
     showborder="true"
     inkscape:showpageshadow="true" />
  <metadata
     id="metadata3034">
    <rdf:RDF>
      <cc:Work
         rdf:about="">
        <dc:format>image/svg+xml</dc:format>
        <dc:type
           rdf:resource="http://purl.org/dc/dcmitype/StillImage" />
        <dc:title></dc:title>
      </cc:Work>
    </rdf:RDF>
  </metadata>
  <g
     inkscape:label="Layer 1"
     inkscape:groupmode="layer"
     id="layer1"
     transform="translate(-234.2853,-330.24523)">
    <g
       style="fill:#ffffff;fill-opacity:1"
       id="fleur_de_lis"
       transform="matrix(1.1750653,0,0,1.1750653,170.40755,285.4102)">
      <path
         d="m 268.38145,264.746 c 11,0.492 17.967,-7.94 19.892,-18.764 -13.302,6.222 -24.863,-2.646 -27.627,-13.862 -4.361,0.888 -9.297,1.608 -14.646,2.138 2.843,12.835 8.272,29.856 22.381,30.488 z"
         style="fill:#ffffff;fill-opacity:1"
         id="path5"
         inkscape:connector-curvature="0" />
      <path
         d="m 162.98845,245.982 c 1.925,10.823 8.893,19.256 19.896,18.764 14.094,-0.632 19.524,-17.623 22.371,-30.455 -5.346,-0.515 -10.286,-1.225 -14.66,-2.101 -2.795,11.182 -14.333,20.001 -27.607,13.792 z"
         style="fill:#ffffff;fill-opacity:1"
         id="path7"
         inkscape:connector-curvature="0" />
      <ellipse
         cx="199.91701"
         cy="221.75101"
         rx="42.978001"
         ry="6.1030002"
         style="fill:#ffffff;fill-opacity:1;fill-rule:evenodd;stroke:none"
         id="ellipse9"
         sodipodi:cx="199.91701"
         sodipodi:cy="221.75101"
         sodipodi:rx="42.978001"
         sodipodi:ry="6.1030002"
         d="m 242.89501,221.75101 c 0,3.37059 -19.24191,6.103 -42.978,6.103 -23.7361,0 -42.978,-2.73241 -42.978,-6.103 0,-3.3706 19.2419,-6.103 42.978,-6.103 23.73609,0 42.978,2.7324 42.978,6.103 z"
         transform="translate(25.530496,0)" />
      <g
         style="fill:#ffffff;fill-opacity:1"
         id="g11"
         transform="translate(25.530496,0)">
        <g
           style="fill:#ffffff;fill-opacity:1"
           id="g13">
          <path
             d="m 133.971,143.507 c -24.755,-4.477 -42.903,15.678 -42.62,36.754 0.252,18.817 12.534,34.168 33.846,33.375 -1.739,-10.598 2.432,-20.067 10.446,-22.813 14.779,-5.062 23.95,9.05 27.043,21.092 4.95,-1.111 10.741,-2.002 17.108,-2.612 -4.22,-29.479 -18.003,-60.764 -45.823,-65.796 z m -13.567,32.824 -1.581,9.414 -4.252,-8.536 -9.434,1.395 6.805,-6.681 -4.25,-8.533 8.455,4.402 6.804,-6.683 -1.565,9.407 8.458,4.404 -9.44,1.411 z"
             style="fill:#ffffff;fill-opacity:1"
             id="path15"
             inkscape:connector-curvature="0" />
        </g>
      </g>
      <g
         style="fill:#ffffff;fill-opacity:1"
         id="g17"
         transform="translate(25.530496,0)">
        <g
           style="fill:#ffffff;fill-opacity:1"
           id="g19">
          <path
             d="m 308.111,175.192 c -1.758,-17.204 -18.333,-34.281 -39.278,-31.686 -30.584,3.792 -44.47,35.372 -48.758,65.839 6.36,0.626 12.131,1.534 17.052,2.66 1.805,-14.165 18.19,-29.364 31.706,-18.648 5.01,3.973 6.881,12.435 5.851,20.702 23.254,-0.525 35.63,-17.287 33.427,-38.867 z m -23.048,1.039 -1.581,9.414 -4.252,-8.536 -9.432,1.396 6.803,-6.682 -4.248,-8.533 8.454,4.401 6.803,-6.682 -1.563,9.406 8.458,4.405 -9.442,1.411 z"
             style="fill:#ffffff;fill-opacity:1"
             id="path21"
             inkscape:connector-curvature="0" />
        </g>
      </g>
      <path
         d="m 225.45945,109.037 c -0.002,-0.029 -0.003,-0.058 -0.006,-0.087 l 0.013,-0.007 c -0.002,0.031 -0.004,0.061 -0.007,0.094 3.678,52.35 3.089,95.054 3.02,99.266 4.61,0.065 9.066,0.276 13.297,0.615 0.835,-15.102 11.881,-37.872 11.881,-37.872 13.109,-25.011 11.957,-38.121 11.957,-38.121 -0.634,-27.944 -25.757,-42.606 -25.757,-42.606 -7.485,-5.419 -14.366,-12.663 -14.4,-12.697 -0.102,0.107 -6.946,7.298 -14.394,12.69 0,0 -25.123,14.661 -25.757,42.605 0,0 -1.152,13.11 11.957,38.121 0,0 11.046,22.768 11.881,37.87 4.231,-0.337 8.688,-0.545 13.298,-0.608 -0.07,-4.184 -0.661,-46.897 3.017,-99.263 z"
         style="fill:#ffffff;fill-opacity:1"
         id="path23"
         inkscape:connector-curvature="0" />
      <path
         d="m 225.70345,270.278 -0.036,0.003 c -2.66,-13.44 -2.731,-31.218 -2.716,-34.871 -4.975,-0.055 -9.77,-0.282 -14.303,-0.654 -2.844,18.396 -12.931,30.785 -12.931,30.785 10.333,20.268 29.949,27.979 29.949,27.979 l 0.036,-0.003 c 0,0 19.616,-7.712 29.949,-27.979 0,0 -10.104,-12.409 -12.936,-30.831 -4.528,0.387 -9.32,0.629 -14.298,0.697 0.018,3.643 -0.054,21.429 -2.714,34.874 z"
         style="fill:#ffffff;fill-opacity:1"
         id="path25"
         inkscape:connector-curvature="0" />
    </g>
    <g
       style="fill:#ffffff;fill-opacity:1"
       id="rope"
       transform="matrix(1.1750653,0,0,1.1750653,200.40755,285.4102)">
      <g
         style="fill:#ffffff;fill-opacity:1"
         id="g28">
        <path
           d="m 101.747,295.277 c 0,0 1.557,0.178 2.418,-0.171 0.697,-0.17 1.908,-1.04 2.776,-1.558 0.69,-0.351 1.386,-1.222 2.422,-1.564 0,0 1.384,-0.343 2.776,-0.172 -3.641,-3.123 -7.106,-6.251 -10.224,-9.72 l 0,0.175 c -1.214,-0.354 -2.772,0 -2.772,0 -1.039,0.17 -1.908,0.867 -2.598,1.383 -0.697,0.353 -2.083,1.043 -2.776,1.221 -0.865,0.172 -2.601,-0.178 -2.601,-0.178 3.294,3.643 6.764,7.119 10.398,10.584 l 0.181,0 0,0 z"
           style="fill:#ffffff;fill-opacity:1;fill-rule:evenodd"
           id="path30"
           inkscape:connector-curvature="0" />
        <path
           d="m 116.633,307.2 c 0,0 1.564,-0.172 2.429,-0.517 0.692,-0.347 1.735,-1.214 2.426,-1.903 0.696,-0.521 1.211,-1.387 2.255,-1.909 0,0 1.386,-0.518 2.768,-0.518 -3.983,-2.599 -7.796,-5.196 -11.437,-8.141 l 0,0.179 c -1.211,-0.179 -2.595,0.172 -2.595,0.172 -1.214,0.347 -1.904,1.213 -2.429,1.729 -0.862,0.52 -2.073,1.388 -2.77,1.559 -0.868,0.347 -2.425,0.175 -2.425,0.175 3.637,3.288 7.624,6.233 11.606,9.175 l 0.172,0 0,-0.001 z"
           style="fill:#ffffff;fill-opacity:1;fill-rule:evenodd"
           id="path32"
           inkscape:connector-curvature="0" />
        <path
           d="m 132.916,317.079 c 0,0 1.558,-0.354 2.428,-0.696 0.518,-0.519 1.557,-1.559 2.075,-2.254 0.696,-0.69 1.041,-1.559 2.084,-2.249 0,0 1.211,-0.696 2.597,-0.867 -4.33,-1.903 -8.494,-4.157 -12.477,-6.577 l 0.174,0 c -1.386,0.171 -2.772,0.69 -2.772,0.69 -1.036,0.521 -1.559,1.384 -2.076,2.08 -0.697,0.52 -1.736,1.559 -2.426,1.903 -0.869,0.345 -2.427,0.516 -2.427,0.516 3.985,2.602 8.315,5.199 12.65,7.454 l 0.17,0 0,0 z"
           style="fill:#ffffff;fill-opacity:1;fill-rule:evenodd"
           id="path34"
           inkscape:connector-curvature="0" />
        <path
           d="m 150.406,324.693 c 0,0 1.563,-0.343 2.253,-1.037 0.525,-0.521 1.387,-1.559 1.912,-2.422 0.342,-0.696 0.69,-1.735 1.729,-2.425 0,0 1.041,-0.87 2.427,-1.215 -4.509,-1.385 -9.012,-3.117 -13.168,-5.024 l 0,0.179 c -1.21,0.171 -2.425,0.86 -2.425,0.86 -1.039,0.696 -1.387,1.733 -1.908,2.427 -0.689,0.689 -1.558,1.731 -2.247,2.255 -0.697,0.519 -2.254,0.688 -2.254,0.688 4.329,2.255 8.834,4.156 13.51,5.89 l 0.171,-0.176 0,0 z"
           style="fill:#ffffff;fill-opacity:1;fill-rule:evenodd"
           id="path36"
           inkscape:connector-curvature="0" />
        <path
           d="m 261.951,319.849 c 0,0 0.688,-1.385 0.862,-2.254 0,-0.694 -0.175,-2.252 -0.347,-3.117 -0.172,-0.868 -0.69,-1.729 -0.69,-2.941 0,0 0.347,-1.386 0.862,-2.601 -4.157,2.248 -8.312,4.159 -12.649,5.889 -0.687,1.04 -1.212,2.426 -1.212,2.426 -0.347,1.388 -0.17,1.902 -0.17,2.946 0.17,0.86 -0.177,2.426 -0.347,3.116 -0.173,0.866 -0.871,2.597 -0.871,2.597 4.512,-1.559 10.054,-3.812 14.562,-5.891 l 0,-0.17 0,0 z"
           style="fill:#ffffff;fill-opacity:1;fill-rule:evenodd"
           id="path38"
           inkscape:connector-curvature="0" />
        <path
           d="m 278.58,310.842 c 0,0 0.687,-1.56 0.687,-2.6 -0.172,-0.689 -0.517,-2.077 -0.87,-2.945 -0.344,-0.69 -0.86,-1.557 -0.86,-2.772 0,0 0,-1.557 0.517,-2.77 -3.982,2.77 -7.968,5.196 -11.952,7.451 l 0.172,0 c -0.696,1.214 -0.866,2.601 -0.866,2.601 0,1.206 0.518,2.073 0.694,2.942 0.172,0.86 0.516,2.247 0.516,3.115 -0.171,0.861 -0.868,2.249 -0.868,2.249 4.335,-2.077 8.663,-4.504 12.83,-7.271 l 0,0 z"
           style="fill:#ffffff;fill-opacity:1;fill-rule:evenodd"
           id="path40"
           inkscape:connector-curvature="0" />
        <path
           d="m 293.991,299.409 c 0,0 0.346,-1.559 0.346,-2.427 -0.173,-0.69 -0.87,-2.072 -1.214,-2.941 -0.344,-0.689 -1.213,-1.386 -1.387,-2.6 0,0 0,-1.385 0.174,-2.771 -3.468,3.122 -7.105,6.239 -10.745,9.009 l 0,-0.172 c -0.349,1.386 -0.349,2.771 -0.349,2.771 0,1.208 0.697,2.075 1.042,2.771 0.345,0.862 0.871,2.247 0.871,2.944 0,0.861 -0.526,2.421 -0.526,2.421 4.162,-2.603 7.976,-5.716 11.788,-8.832 l 0,-0.173 0,0 z"
           style="fill:#ffffff;fill-opacity:1;fill-rule:evenodd"
           id="path42"
           inkscape:connector-curvature="0" />
        <path
           d="m 307.849,286.243 c 0,0 0.173,-1.557 -0.181,-2.418 -0.172,-0.695 -1.034,-1.911 -1.56,-2.773 -0.342,-0.696 -1.21,-1.212 -1.557,-2.427 0,0 -0.344,-1.387 -0.172,-2.768 -3.124,3.635 -6.239,7.099 -9.534,10.212 -0.171,1.215 0,2.774 0,2.774 0.174,1.213 0.869,1.905 1.387,2.598 0.35,0.866 1.04,2.081 1.217,2.771 0.171,0.868 -0.177,2.599 -0.177,2.599 3.642,-3.289 7.279,-6.755 10.576,-10.389 l 0,-0.179 10e-4,0 z"
           style="fill:#ffffff;fill-opacity:1;fill-rule:evenodd"
           id="path44"
           inkscape:connector-curvature="0" />
        <path
           d="m 319.795,271.354 c 0,0 0,-1.558 -0.518,-2.426 -0.172,-0.689 -1.211,-1.729 -1.736,-2.427 -0.689,-0.689 -1.559,-1.207 -2.078,-2.247 0,0 -0.52,-1.387 -0.52,-2.773 -2.427,3.984 -5.199,7.791 -8.145,11.431 l 0.175,0 c -0.175,1.211 0.172,2.769 0.172,2.769 0.345,1.045 1.213,1.735 1.73,2.43 0.525,0.688 1.386,1.902 1.734,2.592 0.175,0.87 0.175,2.429 0.175,2.429 3.115,-3.638 6.236,-7.621 9.01,-11.604 l 0,-0.174 0.001,0 z"
           style="fill:#ffffff;fill-opacity:1;fill-rule:evenodd"
           id="path46"
           inkscape:connector-curvature="0" />
        <path
           d="m 329.665,255.072 c 0,0 -0.345,-1.56 -0.697,-2.421 -0.516,-0.521 -1.56,-1.559 -2.244,-2.08 -0.526,-0.518 -1.559,-1.043 -2.255,-2.076 0,0 -0.696,-1.215 -0.868,-2.597 -1.905,4.326 -4.159,8.483 -6.585,12.461 l 0.172,-0.172 c 0,1.386 0.52,2.771 0.52,2.771 0.523,1.041 1.563,1.559 2.08,2.08 0.697,0.69 1.559,1.732 1.908,2.426 0.519,0.865 0.519,2.42 0.519,2.42 2.771,-3.983 5.194,-8.312 7.451,-12.644 l 0,-0.168 -10e-4,0 z"
           style="fill:#ffffff;fill-opacity:1;fill-rule:evenodd"
           id="path48"
           inkscape:connector-curvature="0" />
        <path
           d="m 337.808,237.753 c 0,0 -0.524,-1.558 -1.043,-2.254 -0.343,-0.686 -1.557,-1.555 -2.254,-2.074 -0.688,-0.523 -1.558,-0.866 -2.252,-1.909 0,0 -0.864,-1.205 -1.037,-2.593 -1.734,4.502 -3.813,8.66 -5.892,12.816 0.171,1.212 0.867,2.601 0.867,2.601 0.519,1.032 1.559,1.376 2.078,2.071 0.692,0.519 1.735,1.56 2.08,2.256 0.517,0.69 0.695,2.42 0.695,2.42 2.42,-4.329 4.673,-8.658 6.757,-13.158 l 0,-0.176 10e-4,0 z"
           style="fill:#ffffff;fill-opacity:1;fill-rule:evenodd"
           id="path50"
           inkscape:connector-curvature="0" />
        <path
           d="m 342.653,219.396 c 0,0 -0.689,-1.559 -1.214,-2.254 -0.691,-0.345 -1.902,-1.04 -2.77,-1.559 -0.69,-0.344 -1.729,-0.515 -2.602,-1.211 0,0 -1.04,-1.215 -1.558,-2.427 -0.867,4.681 -1.907,9.352 -3.124,13.684 0.349,1.214 1.387,2.427 1.387,2.427 0.697,0.86 1.737,1.038 2.427,1.557 0.868,0.518 2.083,1.215 2.601,1.73 0.522,0.695 1.04,2.253 1.04,2.253 1.56,-4.502 2.77,-9.353 3.986,-14.2 l -0.173,0 0,0 z"
           style="fill:#ffffff;fill-opacity:1;fill-rule:evenodd"
           id="path52"
           inkscape:connector-curvature="0" />
        <path
           d="m 345.595,200.515 c 0,0 -0.86,-1.386 -1.559,-1.901 -0.686,-0.521 -2.079,-1.042 -2.941,-1.214 -0.694,-0.343 -1.734,-0.343 -2.777,-1.04 0,0 -1.034,-0.864 -1.73,-2.077 -0.345,4.674 -0.696,9.352 -1.387,14.026 l 0,-0.171 c 0.519,1.211 1.559,2.251 1.559,2.251 1.042,0.867 2.082,0.867 2.771,1.211 0.87,0.347 2.08,1.044 2.777,1.559 0.689,0.519 1.385,2.076 1.385,2.076 0.869,-4.846 1.561,-9.694 2.085,-14.72 l -0.183,0 0,0 z"
           style="fill:#ffffff;fill-opacity:1;fill-rule:evenodd"
           id="path54"
           inkscape:connector-curvature="0" />
        <path
           d="m 346.118,181.466 c 0,0 -1.039,-1.387 -1.907,-1.73 -0.689,-0.35 -2.075,-0.694 -2.944,-0.869 -0.866,-0.171 -1.906,0 -2.949,-0.518 0,0 -1.212,-0.865 -2.075,-1.904 0.345,4.677 0.517,9.351 0.517,14.026 l 0,-0.172 c 0.697,1.211 1.911,2.08 1.911,2.08 0.86,0.692 1.901,0.692 2.77,0.865 0.868,0.171 2.253,0.693 2.944,1.036 0.695,0.521 1.564,1.907 1.564,1.907 0.342,-4.848 0.342,-9.701 0.169,-14.721 l 0,0 z"
           style="fill:#ffffff;fill-opacity:1;fill-rule:evenodd"
           id="path56"
           inkscape:connector-curvature="0" />
        <path
           d="m 344.036,162.416 c 0,0 -1.209,-1.041 -2.072,-1.387 -0.697,-0.343 -2.254,-0.343 -3.123,-0.518 -0.869,0 -1.907,0.347 -2.943,-0.174 0,0 -1.387,-0.519 -2.254,-1.558 1.041,4.674 1.731,9.352 2.254,13.854 l 0,-0.171 c 0.861,1.04 2.074,1.732 2.074,1.732 1.213,0.694 2.255,0.518 2.953,0.518 1.039,0.176 2.426,0.519 3.111,0.866 0.698,0.346 1.912,1.561 1.912,1.561 -0.354,-4.853 -1.04,-9.701 -1.912,-14.551 l 0,-0.172 0,0 z"
           style="fill:#ffffff;fill-opacity:1;fill-rule:evenodd"
           id="path58"
           inkscape:connector-curvature="0" />
        <path
           d="m 339.367,143.881 c 0,0 -1.217,-0.865 -2.084,-1.208 -0.867,-0.175 -2.255,0 -3.117,0 -0.867,0.171 -1.907,0.519 -2.951,0.171 0,0 -1.385,-0.346 -2.599,-1.212 1.739,4.5 3.124,9.006 4.157,13.508 l 0,-0.171 c 1.043,0.864 2.427,1.382 2.427,1.382 1.042,0.521 2.083,0.172 2.95,0.172 0.863,0 2.255,0.175 2.944,0.35 0.869,0.344 2.256,1.387 2.256,1.387 -1.043,-4.85 -2.256,-9.527 -3.813,-14.379 l -0.17,0 0,0 z"
           style="fill:#ffffff;fill-opacity:1;fill-rule:evenodd"
           id="path60"
           inkscape:connector-curvature="0" />
        <path
           d="m 332.609,126.045 c 0,0 -1.559,-0.693 -2.427,-0.865 -0.695,0 -2.254,0.172 -3.116,0.517 -0.695,0.175 -1.736,0.694 -2.95,0.52 0,0 -1.384,-0.345 -2.597,-0.865 2.253,4.155 4.154,8.487 5.889,12.814 l 0,-0.172 c 1.044,0.693 2.432,1.036 2.432,1.036 1.211,0.351 2.245,-0.171 2.94,-0.171 1.043,-0.172 2.428,-0.347 3.117,-0.172 0.867,0.172 2.253,1.208 2.253,1.208 -1.557,-4.671 -3.466,-9.176 -5.541,-13.679 l 0,-0.171 0,0 z"
           style="fill:#ffffff;fill-opacity:1;fill-rule:evenodd"
           id="path62"
           inkscape:connector-curvature="0" />
        <path
           d="m 323.426,109.396 c 0,0 -1.559,-0.693 -2.426,-0.518 -0.861,0 -2.254,0.344 -3.117,0.693 -0.695,0.345 -1.559,0.865 -2.768,0.865 0,0 -1.387,0 -2.774,-0.521 2.774,3.991 5.2,7.982 7.446,11.97 1.213,0.522 2.598,0.695 2.598,0.695 1.216,0.172 2.084,-0.52 2.952,-0.695 0.86,-0.172 2.249,-0.521 3.115,-0.521 0.868,0.175 2.256,0.869 2.256,0.869 -2.084,-4.336 -4.511,-8.675 -7.282,-12.837 l 0,0 z"
           style="fill:#ffffff;fill-opacity:1;fill-rule:evenodd"
           id="path64"
           inkscape:connector-curvature="0" />
        <path
           d="m 312.17,94.003 c 0,0 -1.729,-0.344 -2.599,-0.173 -0.689,0 -2.081,0.693 -2.772,1.039 -0.866,0.519 -1.557,1.212 -2.77,1.384 0,0 -1.386,0.173 -2.773,-0.172 3.29,3.464 6.234,7.1 9.014,10.737 l -0.174,0 c 1.379,0.345 2.77,0.345 2.77,0.345 1.217,0 2.078,-0.694 2.773,-1.038 0.861,-0.349 2.244,-0.692 2.941,-0.865 1.045,0 2.602,0.517 2.602,0.517 -2.774,-3.981 -5.725,-7.965 -9.012,-11.774 l 0,0 z"
           style="fill:#ffffff;fill-opacity:1;fill-rule:evenodd"
           id="path66"
           inkscape:connector-curvature="0" />
        <path
           d="m 298.838,80.171 c 0,0 -1.565,-0.174 -2.427,0.171 -0.696,0.173 -1.908,1.039 -2.775,1.556 -0.69,0.348 -1.208,1.213 -2.421,1.557 0,0 -1.386,0.345 -2.779,0.172 3.642,3.113 7.107,6.226 10.224,9.685 l 0,-0.173 c 1.387,0.345 2.779,0 2.779,0 1.205,-0.172 1.901,-0.866 2.599,-1.383 0.861,-0.347 2.071,-1.041 2.769,-1.212 1.037,-0.173 2.6,0.172 2.6,0.172 -3.297,-3.629 -6.762,-7.087 -10.394,-10.543 l -0.175,0 0,-0.002 z"
           style="fill:#ffffff;fill-opacity:1;fill-rule:evenodd"
           id="path68"
           inkscape:connector-curvature="0" />
        <path
           d="m 284.115,68.198 c 0,0 -1.733,0.173 -2.602,0.521 -0.697,0.345 -1.729,1.213 -2.426,1.901 -0.691,0.522 -1.211,1.387 -2.255,1.907 0,0 -1.382,0.521 -2.77,0.521 3.984,2.594 7.795,5.195 11.436,8.137 l 0,-0.171 c 1.386,0.171 2.771,-0.174 2.771,-0.174 1.041,-0.348 1.731,-1.213 2.427,-1.733 0.695,-0.521 1.901,-1.386 2.597,-1.558 0.87,-0.345 2.427,-0.172 2.427,-0.172 -3.637,-3.292 -7.449,-6.235 -11.605,-9.179 l 0,0 z"
           style="fill:#ffffff;fill-opacity:1;fill-rule:evenodd"
           id="path70"
           inkscape:connector-curvature="0" />
        <path
           d="m 267.659,58.326 c 0,0 -1.559,0.345 -2.253,0.693 -0.69,0.52 -1.731,1.558 -2.249,2.251 -0.525,0.693 -1.04,1.557 -2.083,2.251 0,0 -1.212,0.691 -2.598,0.868 4.331,1.903 8.493,4.152 12.479,6.579 l -0.172,0 c 1.386,-0.176 2.77,-0.692 2.77,-0.692 1.041,-0.521 1.557,-1.387 2.075,-2.079 0.697,-0.52 1.735,-1.562 2.425,-1.905 0.87,-0.345 2.427,-0.522 2.427,-0.522 l 0.172,0 c -4.155,-2.594 -8.482,-5.194 -12.819,-7.445 l -0.174,0 0,10e-4 z"
           style="fill:#ffffff;fill-opacity:1;fill-rule:evenodd"
           id="path72"
           inkscape:connector-curvature="0" />
        <path
           d="m 250.342,50.706 c 0,0 -1.734,0.345 -2.254,1.039 -0.698,0.52 -1.559,1.561 -2.076,2.426 -0.35,0.693 -0.693,1.729 -1.564,2.423 0,0 -1.211,0.865 -2.427,1.213 4.509,1.387 8.841,3.117 12.996,5.022 l 0,-0.172 c 1.212,-0.175 2.598,-0.865 2.598,-0.865 0.867,-0.697 1.386,-1.733 1.911,-2.426 0.515,-0.693 1.385,-1.729 2.075,-2.251 0.694,-0.52 2.425,-0.691 2.425,-0.691 -4.5,-2.251 -9.009,-4.158 -13.684,-5.888 l 0,0.17 0,0 z"
           style="fill:#ffffff;fill-opacity:1;fill-rule:evenodd"
           id="path74"
           inkscape:connector-curvature="0" />
        <path
           d="m 231.984,45.334 c 0,0 -1.563,0.694 -2.081,1.387 -0.52,0.52 -1.214,1.732 -1.559,2.6 -0.344,0.691 -0.525,1.73 -1.386,2.594 0,0 -1.04,1.042 -2.257,1.562 4.505,0.865 9.185,1.903 13.688,3.288 l -0.173,-0.172 c 1.213,-0.348 2.427,-1.213 2.427,-1.213 0.868,-0.865 1.212,-1.903 1.564,-2.597 0.515,-0.691 1.204,-1.906 1.902,-2.426 0.519,-0.692 2.255,-1.209 2.255,-1.209 -4.681,-1.561 -9.533,-2.771 -14.381,-3.985 l 0,0.171 0.001,0 z"
           style="fill:#ffffff;fill-opacity:1;fill-rule:evenodd"
           id="path76"
           inkscape:connector-curvature="0" />
        <path
           d="m 213.104,42.392 c 0,0 -1.386,0.865 -1.904,1.558 -0.521,0.693 -0.867,2.079 -1.212,2.943 -0.353,0.694 -0.353,1.734 -1.043,2.772 0,0 -0.866,1.041 -2.079,1.735 4.853,0.345 9.354,0.692 14.036,1.384 l -0.177,0 c 1.217,-0.52 2.257,-1.561 2.257,-1.561 0.86,-0.866 0.86,-1.902 1.213,-2.769 0.344,-0.867 1.034,-2.077 1.56,-2.771 0.515,-0.521 2.071,-1.385 2.071,-1.385 -4.844,-0.865 -9.697,-1.558 -14.55,-1.906 l -0.172,0 0,0 z"
           style="fill:#ffffff;fill-opacity:1;fill-rule:evenodd"
           id="path78"
           inkscape:connector-curvature="0" />
        <path
           d="m 194.05,42.046 c 0,0 -1.386,1.038 -1.732,1.732 -0.343,0.691 -0.693,2.078 -0.868,2.942 -0.172,0.865 0,1.906 -0.516,2.943 0,0 -0.867,1.213 -1.911,2.08 4.68,-0.348 9.534,-0.521 14.036,-0.348 l 0,-0.173 c 1.04,-0.692 1.907,-1.902 1.907,-1.902 0.689,-0.871 0.689,-1.906 0.865,-2.771 0.349,-0.87 0.693,-2.251 1.212,-2.944 0.525,-0.692 1.736,-1.559 1.736,-1.559 l 0.171,0 c -5.024,-0.347 -9.876,-0.347 -14.901,-0.174 l 0,0.174 0.001,0 z"
           style="fill:#ffffff;fill-opacity:1;fill-rule:evenodd"
           id="path80"
           inkscape:connector-curvature="0" />
        <path
           d="m 174.995,44.122 c 0,0 -1.033,1.041 -1.383,1.906 -0.171,0.693 -0.346,2.251 -0.346,3.119 -0.172,0.865 0.175,1.903 -0.344,2.944 0,0 -0.518,1.385 -1.558,2.25 4.674,-0.865 9.355,-1.733 13.854,-2.25 1.043,-0.869 1.738,-2.08 1.738,-2.08 0.516,-1.041 0.344,-2.077 0.516,-2.946 0,-0.865 0.347,-2.423 0.698,-3.117 0.346,-0.693 1.556,-1.903 1.556,-1.903 -4.851,0.517 -9.704,1.038 -14.55,1.903 l -0.181,0.174 0,0 z"
           style="fill:#ffffff;fill-opacity:1;fill-rule:evenodd"
           id="path82"
           inkscape:connector-curvature="0" />
        <path
           d="m 156.465,48.627 c 0,0 -0.867,1.213 -1.039,2.079 -0.172,0.866 -0.172,2.251 -0.172,3.116 0.172,0.865 0.521,1.907 0.172,2.943 0,0 -0.347,1.561 -1.209,2.6 4.502,-1.729 9.005,-2.943 13.51,-4.158 l -0.171,0 c 0.869,-1.037 1.559,-2.25 1.559,-2.25 0.343,-1.213 0,-2.251 0,-2.945 0,-1.041 0.172,-2.426 0.343,-3.12 0.354,-0.864 1.393,-2.076 1.393,-2.076 -4.853,0.866 -9.532,2.076 -14.214,3.637 l -0.172,0.174 0,0 z"
           style="fill:#ffffff;fill-opacity:1;fill-rule:evenodd"
           id="path84"
           inkscape:connector-curvature="0" />
        <path
           d="m 138.806,55.555 c 0,0 -0.87,1.386 -0.87,2.25 -0.174,0.694 0.172,2.251 0.345,3.117 0.171,0.868 0.697,1.733 0.525,2.946 0,0 -0.182,1.383 -0.87,2.596 4.157,-2.251 8.491,-4.157 12.821,-5.887 l -0.171,0 c 0.687,-1.042 1.211,-2.427 1.211,-2.427 0.171,-1.209 -0.172,-2.074 -0.342,-2.944 -0.182,-0.865 -0.182,-2.423 0,-3.115 0,-0.867 1.032,-2.251 1.032,-2.251 -4.673,1.559 -9.183,3.464 -13.681,5.54 l 0,0.175 0,0 z"
           style="fill:#ffffff;fill-opacity:1;fill-rule:evenodd"
           id="path86"
           inkscape:connector-curvature="0" />
        <path
           d="m 122.006,64.561 c 0,0 -0.523,1.559 -0.523,2.597 0,0.691 0.523,2.077 0.695,2.945 0.344,0.69 1.041,1.56 1.041,2.769 0,0 -0.176,1.561 -0.525,2.771 3.817,-2.771 7.809,-5.194 11.971,-7.445 l -0.171,0 c 0.525,-1.213 0.696,-2.598 0.696,-2.598 0.172,-1.213 -0.343,-2.078 -0.524,-2.945 -0.344,-0.865 -0.687,-2.249 -0.516,-3.117 0,-0.868 0.697,-2.249 0.697,-2.249 -4.344,2.075 -8.681,4.502 -12.841,7.272 l 0,0 z"
           style="fill:#ffffff;fill-opacity:1;fill-rule:evenodd"
           id="path88"
           inkscape:connector-curvature="0" />
        <path
           d="m 106.572,75.992 c 0,0 -0.35,1.558 -0.177,2.425 0.177,0.694 0.694,2.079 1.212,2.944 0.352,0.692 1.039,1.385 1.211,2.595 0,0 0.181,1.387 -0.172,2.771 3.469,-3.288 7.11,-6.232 10.919,-9.006 l -0.172,0.177 c 0.52,-1.387 0.344,-2.771 0.344,-2.771 0,-1.214 -0.687,-2.078 -0.865,-2.772 -0.346,-0.864 -0.864,-2.251 -1.036,-2.943 0,-0.866 0.519,-2.426 0.519,-2.426 -3.985,2.6 -7.973,5.542 -11.782,8.834 l 0,0.172 -10e-4,0 z"
           style="fill:#ffffff;fill-opacity:1;fill-rule:evenodd"
           id="path90"
           inkscape:connector-curvature="0" />
        <path
           d="m 92.905,89.153 c 0,0 -0.172,1.558 0,2.425 0.174,0.69 1.043,1.905 1.558,2.771 0.525,0.692 1.221,1.212 1.565,2.423 0,0 0.346,1.384 0.174,2.771 3.12,-3.637 6.423,-7.1 9.718,-10.216 l -0.172,0 c 0.343,-1.214 0.172,-2.771 0.172,-2.771 -0.354,-1.213 -1.04,-1.906 -1.391,-2.6 -0.521,-0.865 -1.213,-2.075 -1.385,-2.768 -0.172,-0.868 0.172,-2.598 0.172,-2.598 -3.641,3.291 -7.114,6.752 -10.412,10.388 l 0,0.175 0.001,0 z"
           style="fill:#ffffff;fill-opacity:1;fill-rule:evenodd"
           id="path92"
           inkscape:connector-curvature="0" />
        <path
           d="m 80.957,104.047 c 0,0 0,1.559 0.343,2.423 0.35,0.694 1.214,1.734 1.908,2.427 0.517,0.693 1.386,1.209 1.902,2.251 0,0 0.527,1.387 0.527,2.771 2.595,-3.984 5.367,-7.793 8.14,-11.429 0,-1.214 -0.347,-2.771 -0.347,-2.771 -0.344,-1.04 -1.211,-1.733 -1.729,-2.424 -0.525,-0.693 -1.384,-1.907 -1.559,-2.599 -0.354,-0.866 -0.179,-2.427 -0.179,-2.427 -3.291,3.641 -6.239,7.45 -9.183,11.607 l 0.177,0.171 0,0 z"
           style="fill:#ffffff;fill-opacity:1;fill-rule:evenodd"
           id="path94"
           inkscape:connector-curvature="0" />
        <path
           d="m 70.907,120.327 c 0,0 0.347,1.561 0.872,2.254 0.343,0.69 1.386,1.73 2.072,2.251 0.7,0.517 1.565,1.037 2.258,2.078 0,0 0.692,1.211 0.864,2.595 2.083,-4.327 4.332,-8.485 6.583,-12.466 l 0,0.171 c -0.171,-1.385 -0.688,-2.771 -0.688,-2.771 -0.523,-1.037 -1.391,-1.558 -1.907,-2.078 -0.7,-0.694 -1.733,-1.73 -2.083,-2.424 -0.346,-0.867 -0.518,-2.426 -0.518,-2.426 -2.597,3.983 -5.196,8.313 -7.454,12.643 l 0,0.173 10e-4,0 z"
           style="fill:#ffffff;fill-opacity:1;fill-rule:evenodd"
           id="path96"
           inkscape:connector-curvature="0" />
        <path
           d="m 63.292,137.647 c 0,0 0.519,1.734 1.034,2.426 0.523,0.516 1.736,1.383 2.429,1.902 0.693,0.349 1.736,0.693 2.423,1.561 0,0 0.872,1.211 1.215,2.594 1.564,-4.5 3.121,-9.005 5.023,-13.157 l -0.172,0 c -0.172,-1.215 -0.869,-2.601 -0.869,-2.601 -0.69,-0.866 -1.729,-1.384 -2.247,-1.905 -0.87,-0.521 -1.908,-1.386 -2.251,-2.077 -0.525,-0.694 -0.872,-2.424 -0.872,-2.424 -2.078,4.502 -3.98,9.008 -5.713,13.681 l 0,0 z"
           style="fill:#ffffff;fill-opacity:1;fill-rule:evenodd"
           id="path98"
           inkscape:connector-curvature="0" />
        <path
           d="m 57.921,156.005 c 0,0 0.689,1.558 1.387,2.076 0.516,0.521 1.73,1.214 2.601,1.736 0.865,0.343 1.902,0.343 2.769,1.208 0,0 0.869,1.042 1.384,2.251 0.871,-4.503 1.911,-9.176 3.297,-13.68 l -0.174,0.175 c -0.344,-1.214 -1.212,-2.426 -1.212,-2.426 -0.867,-0.865 -1.736,-1.215 -2.598,-1.558 -0.697,-0.521 -1.908,-1.215 -2.429,-1.907 -0.695,-0.516 -1.212,-2.073 -1.212,-2.073 -1.383,4.503 -2.77,9.349 -3.813,14.198 l 0,0 z"
           style="fill:#ffffff;fill-opacity:1;fill-rule:evenodd"
           id="path100"
           inkscape:connector-curvature="0" />
        <path
           d="m 54.976,174.882 c 0,0 0.867,1.384 1.733,1.905 0.519,0.521 1.908,1.041 2.771,1.215 0.871,0.343 1.907,0.343 2.779,1.036 0,0 1.215,0.865 1.901,2.08 0.172,-4.673 0.697,-9.351 1.387,-14.029 l -0.171,0.175 c -0.519,-1.211 -1.558,-2.251 -1.558,-2.251 -0.871,-0.868 -1.908,-0.868 -2.773,-1.211 -0.693,-0.35 -2.079,-1.043 -2.604,-1.559 -0.689,-0.521 -1.386,-2.079 -1.386,-2.079 -1.041,4.849 -1.732,9.695 -2.079,14.718 l 0,0 z"
           style="fill:#ffffff;fill-opacity:1;fill-rule:evenodd"
           id="path102"
           inkscape:connector-curvature="0" />
        <path
           d="m 54.646,193.937 c 0,0 1.036,1.386 1.729,1.729 0.69,0.347 2.249,0.693 3.116,0.868 0.69,0.172 1.73,0 2.767,0.519 0,0 1.387,0.868 2.073,1.904 -0.344,-4.677 -0.515,-9.351 -0.344,-14.029 -0.861,-1.037 -1.901,-1.902 -1.901,-1.902 -1.036,-0.696 -2.075,-0.696 -2.944,-0.868 -0.865,-0.343 -2.249,-0.692 -2.767,-1.214 -0.867,-0.344 -1.729,-1.73 -1.729,-1.73 -0.344,4.85 -0.344,9.698 -0.172,14.723 l 0.172,0 0,0 z"
           style="fill:#ffffff;fill-opacity:1;fill-rule:evenodd"
           id="path104"
           inkscape:connector-curvature="0" />
        <path
           d="m 56.709,212.986 c 0,0 1.212,1.04 2.083,1.387 0.688,0.342 2.074,0.342 2.942,0.516 0.868,0 1.912,-0.344 2.943,0.175 0,0 1.39,0.521 2.428,1.563 -1.038,-4.681 -1.903,-9.355 -2.428,-13.857 -0.861,-0.867 -2.076,-1.731 -2.076,-1.731 -1.041,-0.52 -2.08,-0.348 -2.951,-0.52 -0.859,0 -2.245,-0.345 -2.942,-0.692 -0.866,-0.347 -1.904,-1.561 -1.904,-1.561 0.348,4.849 0.866,9.701 1.73,14.55 l 0.175,0.17 0,0 z"
           style="fill:#ffffff;fill-opacity:1;fill-rule:evenodd"
           id="path106"
           inkscape:connector-curvature="0" />
        <path
           d="m 61.209,231.516 c 0,0 1.386,0.869 2.258,1.043 0.693,0.171 2.08,0.171 3.119,0.171 0.69,-0.171 1.733,-0.518 2.945,-0.171 0,0 1.384,0.343 2.427,1.212 -1.559,-4.501 -2.944,-9.003 -4.157,-13.513 l 0,0.173 c -0.867,-0.862 -2.254,-1.558 -2.254,-1.558 -1.215,-0.345 -2.08,0 -2.951,0 -1.034,0 -2.418,-0.172 -3.115,-0.345 -0.87,-0.343 -2.08,-1.386 -2.08,-1.386 1.04,4.853 2.251,9.525 3.638,14.201 l 0.17,0.173 0,0 z"
           style="fill:#ffffff;fill-opacity:1;fill-rule:evenodd"
           id="path108"
           inkscape:connector-curvature="0" />
        <path
           d="m 68.138,249.186 c 0,0 1.386,0.868 2.256,0.868 0.866,0.171 2.254,-0.18 3.121,-0.354 0.862,-0.172 1.73,-0.687 2.946,-0.515 0,0 1.386,0.172 2.597,0.868 -2.255,-4.155 -4.157,-8.487 -5.72,-12.815 l 0,0.171 c -1.208,-0.694 -2.595,-1.037 -2.595,-1.037 -1.218,-0.349 -2.079,0.17 -2.949,0.17 -0.867,0.173 -2.425,0.173 -3.116,0.173 -0.867,-0.173 -2.254,-1.216 -2.254,-1.216 1.559,4.682 3.467,9.183 5.542,13.687 l 0.172,0 0,0 z"
           style="fill:#ffffff;fill-opacity:1;fill-rule:evenodd"
           id="path110"
           inkscape:connector-curvature="0" />
        <path
           d="m 77.321,265.983 c 0,0 1.558,0.518 2.427,0.518 0.69,0 2.072,-0.518 2.944,-0.689 0.865,-0.347 1.736,-1.04 2.77,-1.04 0,0 1.563,0.171 2.774,0.522 -2.774,-3.813 -5.201,-7.797 -7.45,-11.781 -1.21,-0.516 -2.598,-0.69 -2.598,-0.69 -1.215,-0.171 -2.08,0.348 -2.951,0.69 -0.862,0.172 -2.246,0.524 -2.944,0.348 -0.865,0 -2.423,-0.69 -2.423,-0.69 2.251,4.327 4.68,8.658 7.275,12.813 l 0.176,0 0,-10e-4 z"
           style="fill:#ffffff;fill-opacity:1;fill-rule:evenodd"
           id="path112"
           inkscape:connector-curvature="0" />
        <path
           d="m 88.578,281.398 c 0,0 1.558,0.343 2.425,0.173 0.69,-0.173 2.083,-0.691 2.945,-1.216 0.696,-0.344 1.387,-1.033 2.597,-1.212 0,0 1.559,-0.171 2.77,0.179 -3.113,-3.465 -6.058,-7.101 -8.834,-10.914 l 0,0.172 c -1.208,-0.342 -2.772,-0.342 -2.772,-0.342 -1.215,0 -1.901,0.689 -2.772,1.039 -0.86,0.171 -2.245,0.688 -2.942,0.86 -0.868,0 -2.425,-0.516 -2.425,-0.516 2.769,3.985 5.72,7.965 8.837,11.776 l 0.171,0 0,0.001 z"
           style="fill:#ffffff;fill-opacity:1;fill-rule:evenodd"
           id="path114"
           inkscape:connector-curvature="0" />
        <path
           d="m 134.646,364.877 c -2.426,1.559 -3.813,2.772 -3.813,2.772 l 7.454,8.658 3.116,-4.674 -6.757,-6.756 0,0 z"
           style="fill:#ffffff;fill-opacity:1;fill-rule:evenodd"
           id="path116"
           inkscape:connector-curvature="0" />
        <path
           d="m 138.799,360.378 c 6.759,-5.541 12.302,1.73 12.302,1.73 l -5.023,4.846 -7.279,-6.576 0,0 z"
           style="fill:#ffffff;fill-opacity:1;fill-rule:evenodd"
           id="path118"
           inkscape:connector-curvature="0" />
        <path
           d="m 257.443,367.131 c 2.254,1.731 3.637,2.946 3.637,2.946 l -7.794,8.485 -2.951,-4.855 7.108,-6.576 0,0 z"
           style="fill:#ffffff;fill-opacity:1;fill-rule:evenodd"
           id="path120"
           inkscape:connector-curvature="0" />
        <path
           d="m 253.466,362.604 c -6.59,-5.911 -12.308,1.213 -12.308,1.213 l 4.681,5.045 7.627,-6.258 0,0 z"
           style="fill:#ffffff;fill-opacity:1;fill-rule:evenodd"
           id="path122"
           inkscape:connector-curvature="0" />
        <path
           d="m 240.815,348.079 c -8.836,-4.675 -13.51,2.076 -13.51,2.076 5.37,2.598 9.697,8.658 9.697,8.658 l 1.387,2.251 -0.173,-0.17 c 0,0 6.928,-7.446 11.955,-2.77 -2.077,-2.775 -3.985,-5.201 -5.027,-6.411 -0.863,-0.86 -2.421,-2.248 -4.329,-3.634 l 0,0 z"
           style="fill:#ffffff;fill-opacity:1;fill-rule:evenodd"
           id="path124"
           inkscape:connector-curvature="0" />
        <path
           d="m 244.11,345.996 c 5.197,-6.058 2.945,-13.334 2.076,-16.8 l -10.569,4.853 c 0.172,0.519 1.729,3.463 -1.212,6.93 0,0 10.224,4.328 9.705,5.017 l 0,0 z"
           style="fill:#ffffff;fill-opacity:1;fill-rule:evenodd"
           id="path126"
           inkscape:connector-curvature="0" />
        <path
           d="m 182.282,351.539 c -1.042,0.182 -1.911,0.182 -2.951,0.182 -1.73,0 -3.634,-0.354 -5.2,-1.043 -1.383,4.501 -11.605,3.462 -11.605,3.462 3.637,3.466 8.489,6.064 13.688,6.925 l 0,-0.17 c 0,0 5.714,-1.213 5.889,-9.527 l 0.179,0.171 0,0 z"
           style="fill:#ffffff;fill-opacity:1;fill-rule:evenodd"
           id="path128"
           inkscape:connector-curvature="0" />
        <path
           d="m 223.5,348.597 c 0,0.173 7.099,-6.579 11.606,-4.503 l -1.041,-0.868 c -3.986,-3.115 -9.009,-4.845 -13.861,-5.018 -4.33,0 -11.953,1.212 -13.685,3.985 0,0 6.584,1.382 10.74,5.542 0.345,0.344 2.084,0 6.241,0.862 l 0,0 z"
           style="fill:#ffffff;fill-opacity:1;fill-rule:evenodd"
           id="path130"
           inkscape:connector-curvature="0" />
        <path
           d="m 159.245,354.837 c -2.076,1.383 -3.291,2.59 -3.291,2.59 l -2.08,1.909 0.172,0 c 0,0 -6.583,-7.797 -11.781,-3.289 2.082,-2.599 3.983,-5.194 5.198,-6.238 1.041,-1.212 2.426,-2.427 4.5,-3.46 l -0.69,0.343 c 0.872,-0.343 1.558,-0.517 2.254,-0.868 0.001,-0.001 1.386,6.582 5.718,9.013 l 0,0 z"
           style="fill:#ffffff;fill-opacity:1;fill-rule:evenodd"
           id="path132"
           inkscape:connector-curvature="0" />
        <path
           d="m 212.592,348.939 c -6.066,-5.017 -12.131,-5.886 -16.633,-7.271 l 0,0 -9.009,6.239 10.738,3.632 c 3.295,0.867 3.984,2.426 8.144,5.025 0,0 9.533,-5.541 6.76,-7.625 l 0,0 z"
           style="fill:#ffffff;fill-opacity:1;fill-rule:evenodd"
           id="path134"
           inkscape:connector-curvature="0" />
        <path
           d="m 231.123,357.948 c -3.469,3.463 -9.355,3.807 -9.355,3.807 -3.983,0.182 -7.795,-0.344 -12.478,-3.116 0,0 7.799,-5.36 7.451,-7.961 1.904,0.346 7.448,1.385 8.84,0.346 0,-10e-4 1.901,4.673 5.542,6.924 l 0,0 z"
           style="fill:#ffffff;fill-opacity:1;fill-rule:evenodd"
           id="path136"
           inkscape:connector-curvature="0" />
        <path
           d="m 185.217,351.023 0.175,-0.171 4.499,1.037 c 8.15,2.075 9.533,3.289 9.533,3.289 0,0 -9.18,8.658 -17.33,6.576 0,0 6.068,-4.5 3.298,-10.902 l -0.175,0.171 0,0 z"
           style="fill:#ffffff;fill-opacity:1;fill-rule:evenodd"
           id="path138"
           inkscape:connector-curvature="0" />
        <path
           d="m 243.071,326.777 c 0,0 0.341,-1.04 0.515,-1.908 0.18,-0.69 0.524,-1.733 0.352,-2.601 0,-0.861 -0.695,-1.559 -0.352,-2.592 0,0 0.868,-2.598 1.738,-3.641 -4.509,1.559 -10.919,3.982 -15.077,6.232 -1.04,0.524 -1.902,1.044 -1.902,1.044 -0.525,1.038 -0.696,1.9 -0.696,2.769 0,0.869 -0.172,2.254 -0.172,3.115 0,2.083 -1.903,4.853 -1.903,4.853 4.849,-0.868 11.087,-3.638 15.07,-6.063 l 2.427,-1.208 0,0 z"
           style="fill:#ffffff;fill-opacity:1;fill-rule:evenodd"
           id="path140"
           inkscape:connector-curvature="0" />
        <path
           d="m 216.917,323.656 c 4.156,-3.46 7.614,-4.677 10.389,-3.986 9.532,-3.983 11.091,-4.327 11.091,-4.327 -3.642,-4.33 -7.455,-5.02 -14.035,-4.85 -2.945,0.176 -11.953,3.463 -13.34,5.371 l 5.895,7.792 0,0 z"
           style="fill:#ffffff;fill-opacity:1;fill-rule:evenodd"
           id="path142"
           inkscape:connector-curvature="0" />
        <path
           d="m 216.924,323.656 c 0,0 -7.461,-5.889 -5.206,-8.489 l 5.206,8.489 0,0 z"
           style="fill:#ffffff;fill-opacity:1;fill-rule:evenodd"
           id="path144"
           inkscape:connector-curvature="0" />
        <path
           d="m 167.904,350.155 c 1.039,-0.347 2.079,-1.216 2.427,-1.559 l 0.171,0 c -3.641,-2.773 -5.89,-7.274 -5.89,-12.121 -6.588,-0.868 -7.975,-8.312 -7.975,-8.312 -1.039,2.597 -1.558,5.188 -1.558,8.134 0,5.024 1.385,9.873 3.984,13.857 l 0.175,0 c 0.001,10e-4 5.025,1.04 8.666,10e-4 l 0,0 z"
           style="fill:#ffffff;fill-opacity:1;fill-rule:evenodd"
           id="path146"
           inkscape:connector-curvature="0" />
        <path
           d="m 158.542,324.179 c 0,0 1.564,7.792 6.759,8.134 1.044,-3.286 5.372,-7.1 8.145,-9 l 1.039,-1.215 c -0.867,-6.404 2.08,-10.047 2.08,-10.047 l -2.947,0.698 c -6.239,1.729 -11.781,6.061 -15.076,11.43 l 0,0 z"
           style="fill:#ffffff;fill-opacity:1;fill-rule:evenodd"
           id="path148"
           inkscape:connector-curvature="0" />
        <path
           d="m 182.448,312.92 c 0.862,-1.213 2.426,-0.693 3.467,-0.869 5.716,-0.686 13.684,3.116 15.244,6.759 l -2.601,1.9 c -2.074,1.906 -5.197,2.255 -5.197,2.255 l -1.385,-0.523 c -1.73,-0.688 -4.503,-1.034 -6.583,-1.034 -1.905,0 -4.16,-0.521 -5.889,0.171 -2.254,-2.253 2.944,-8.659 2.944,-8.659 l 0,0 z"
           style="fill:#ffffff;fill-opacity:1;fill-rule:evenodd"
           id="path150"
           inkscape:connector-curvature="0" />
        <path
           d="m 207.904,333.878 c -0.867,0.344 4.683,2.248 13.339,1.034 l 0,-0.173 c 0,0 1.216,-1.211 1.566,-1.9 0.172,-0.696 0.861,-2.428 0.861,-3.289 0.171,-0.87 0.353,-1.386 0.353,-2.601 0,0 0,-1.04 0.515,-2.08 -1.038,0.521 -6.239,2.252 -6.239,2.252 -1.382,0.347 -2.425,0.518 -2.425,0.518 -0.691,0.525 -1.387,1.215 -1.901,1.73 -0.525,0.354 -1.559,1.215 -2.599,2.254 -0.524,0.348 -3.123,1.905 -3.47,2.255 l 0,0 z"
           style="fill:#ffffff;fill-opacity:1;fill-rule:evenodd"
           id="path152"
           inkscape:connector-curvature="0" />
        <path
           d="m 188.169,334.912 c 0,0 -0.698,0 0.171,-3.805 0.175,-1.043 0.518,-1.738 0.867,-2.601 0.346,-0.697 0.69,-1.729 1.558,-2.77 0,0 -1.212,0.691 0,0 l -1.735,0.172 c -4.847,-0.519 -7.273,-0.868 -11.781,-1.73 -1.212,0 0,0 0,0 -1.384,0.345 -3.46,1.73 -3.984,2.599 -0.344,0.69 -1.042,1.032 -1.559,1.558 -0.514,0.519 -1.729,2.076 -1.729,2.076 4.673,2.08 13.51,4.681 18.192,4.501 l 0,0 z"
           style="fill:#ffffff;fill-opacity:1;fill-rule:evenodd"
           id="path154"
           inkscape:connector-curvature="0" />
        <path
           d="m 213.979,325.563 c 0,0 -6.239,-5.195 -5.198,-9.009 -6.936,6.238 -9.705,9.354 -15.42,9.354 -1.563,0.172 -0.352,0 -0.352,0 -0.69,0.868 -1.034,2.076 -1.384,2.944 -0.175,0.869 -0.519,1.73 -0.519,2.599 -0.172,2.419 0,3.115 0,3.115 6.411,0.345 5.886,0.519 11.78,-1.039 0,0 3.986,-1.386 7.798,-5.199 0.696,-0.518 2.597,-2.076 3.295,-2.765 l 0,0 z"
           style="fill:#ffffff;fill-opacity:1;fill-rule:evenodd"
           id="path156"
           inkscape:connector-curvature="0" />
        <path
           d="m 190.595,340.281 c -7.107,-2.591 -16.805,-3.459 -22.005,-1.385 l 1.215,2.426 3.635,4.849 4.161,-0.348 c 0,0 3.118,0 5.543,1.216 0.001,0 6.581,-6.929 7.451,-6.758 l 0,0 z"
           style="fill:#ffffff;fill-opacity:1;fill-rule:evenodd"
           id="path158"
           inkscape:connector-curvature="0" />
        <polygon
           points="254.498,365.05 247.564,371.109 248.431,372.149 255.366,366.092 255.366,366.092 "
           style="fill:#ffffff;fill-opacity:1;fill-rule:evenodd"
           id="polygon160" />
        <polygon
           points="143.829,368.862 137.247,362.623 136.38,363.666 142.961,369.897 142.961,369.897 "
           style="fill:#ffffff;fill-opacity:1;fill-rule:evenodd"
           id="polygon162" />
      </g>
    </g>
  </g>
</svg>
